<svg width="124" height="117" viewBox="0 0 124 117" fill="none" xmlns="http://www.w3.org/2000/svg">
<path d="M44.2621 82.6861L59.8106 91.4337C59.8106 91.4337 86.1315 100.437 89.5415 100.181C92.9515 99.9253 107.88 98.7005 108.161 97.5396C108.471 96.2325 104.276 91.4245 104.276 91.4245C104.276 91.4245 115.591 85.6385 115.456 84.2217C115.252 82.0371 111.096 80.1084 111.096 80.1084C111.096 80.1084 119.059 69.7521 118.662 68.7832C117.703 66.4706 112.181 66.5346 112.181 66.5346C112.181 66.5346 119.951 58.6554 119.679 57.33C119.137 54.6884 108.5 53.7286 108.5 53.7286C108.5 53.7286 114.022 48.7104 113.072 46.8457C112.065 44.8713 98.9578 43.9481 98.9578 43.9481C98.9578 43.9481 104.296 36.5899 103.598 35.7124C101.69 33.3359 85.3275 34.5516 85.3275 34.5516C85.3275 34.5516 87.575 27.9246 86.3543 27.3488C85.4631 26.9283 72.3753 32.367 72.3753 32.367C72.3753 32.367 72.2397 26.1879 70.1956 26.5718C68.1515 26.9557 57.5147 37.961 57.5147 37.961C57.5147 37.961 52.3997 30.8222 51.4503 30.8222C50.5009 30.8222 44.4268 38.025 44.4268 38.025C44.4268 38.025 40.8812 30.3012 39.1084 30.3012C37.3356 30.3012 31.6103 42.3942 31.6103 42.3942C31.6103 42.3942 25.4006 35.8313 24.4512 36.3431C23.4922 36.855 22.2715 41.6813 22.0003 44.2589C21.729 46.8366 21.2543 50.6299 21.2543 50.6299C21.2543 50.6299 16.275 49.2771 15.5968 48.7652C14.9187 48.2534 12.3903 46.4527 11.4409 47.1565C10.7918 47.6409 12.6712 52.4306 14.0275 54.8803C15.7809 58.0247 19.6172 62.4762 19.6172 62.4762L44.2621 82.6861Z" fill="#6D4A37"/>
<path d="M42.5862 71.0592L29.3337 87.8323C29.3337 87.8323 28.675 92.4848 28.0356 93.6914C27.3962 94.8888 21.9421 99.8887 24.3059 101.516C26.6696 103.143 32.3562 102.631 34.2162 100.318C36.2893 97.7407 38.7596 92.8505 38.7596 92.8505C38.7596 92.8505 44.9403 90.7938 46.6743 88.3076C48.3987 85.8213 48.9509 83.4996 48.9509 82.3844C48.9509 81.2693 49.319 78.2712 49.2221 76.9823C49.1253 75.6935 47.8562 70.5473 47.8562 70.5473L42.5862 71.0592Z" fill="#F7BB86"/>
<path d="M17.3987 54.6335C17.3987 54.6335 25.449 51.544 30.6318 52.4489C35.8146 53.3538 44.6787 59.1399 49.0478 65.1909C53.4168 71.242 57.3693 77.805 63.6371 82.4302C69.9146 87.0645 74.8165 91.5708 82.3243 94.3952C89.8224 97.2288 96.9137 96.5159 99.3743 96.3879C101.835 96.2599 107.56 96.4519 107.56 95.812C107.56 95.1722 103.201 88.3442 103.201 88.3442C103.201 88.3442 114.38 84.0938 114.797 83.198C115.213 82.3022 109.75 77.7959 109.75 77.7959C109.75 77.7959 117.936 68.3993 117.664 67.7595C117.393 67.1196 109.207 64.6699 109.207 64.6699C109.207 64.6699 118.478 57.7231 118.478 56.3063C118.478 54.8895 107.841 53.4727 107.018 52.193C106.204 50.9041 112.336 47.1748 112.336 46.2698C112.336 45.3649 96.2453 43.0523 95.974 42.2845C95.7028 41.5167 102.658 35.9775 102.252 35.0817C101.845 34.1768 90.3843 33.537 87.6621 33.537C84.9303 33.537 81.8012 34.1768 81.1134 33.537C80.4353 32.8971 85.6181 28.7747 86.2962 27.6138C86.9743 26.453 80.4353 28.6467 76.8896 29.5425C73.344 30.4474 70.0696 32.632 69.2559 31.7271C68.4421 30.8222 71.8424 26.7089 70.215 26.5809C68.5778 26.453 63.2593 30.3103 61.6221 31.9831C59.9849 33.6558 56.8462 36.7453 56.8462 36.7453C56.8462 36.7453 53.3006 31.9373 52.8937 32.367C52.3512 32.9428 49.0768 38.2901 48.1178 38.546C47.1587 38.802 41.2978 31.4712 40.6196 31.4712C39.9415 31.4712 33.5284 42.6684 33.5284 42.6684C33.5284 42.6684 27.2509 37.7782 26.3015 37.3943C25.4587 37.0561 23.7149 50.0084 23.7149 50.0084C23.7149 50.0084 19.3556 49.6245 17.4374 48.9755C15.5193 48.3265 11.7121 46.0139 11.4409 47.1748C11.1696 48.3356 13.2137 51.0321 14.444 52.3209C15.6743 53.6098 17.3987 54.6335 17.3987 54.6335Z" fill="#865B52"/>
<path d="M41.1235 66.0867C41.1235 66.0867 37.0547 58.4269 28.5104 57.4031C19.966 56.3794 15.4904 64.7979 13.1266 65.9131C10.7629 67.0282 5.58005 66.5163 4.85349 70.5473C4.12693 74.5784 6.57787 79.1304 11.4022 82.4759C16.2169 85.8213 21.8551 88.2253 30.8547 88.3076C39.8544 88.3898 44.6982 81.2602 45.4926 76.5527C45.8607 74.4047 45.8607 71.8362 45.8607 71.8362C45.8607 71.8362 52.3126 70.2091 54.3179 62.8327C56.3135 55.4562 48.8541 54.9717 45.2213 59.0576C41.9469 62.7413 41.1235 66.0867 41.1235 66.0867Z" fill="#FED3B4"/>
<path d="M54.3566 93.9473C54.3566 93.9473 36.6284 103.984 38.3334 104.825C40.0384 105.666 41.3366 106.497 45.4925 104.825C49.6484 103.152 57.0884 98.2617 57.0884 98.2617C57.0884 98.2617 62.2034 99.6785 67.1828 99.8705C72.1622 100.062 81.0263 100.446 81.0263 100.446L85.3178 95.4281L58.7934 89.7061L54.3566 93.9473Z" fill="#F6BA84"/>
<path d="M57.631 83.006C63.2885 84.0389 69.6338 85.9676 74.4775 87.8963C79.3213 89.8249 89.7741 94.377 89.9582 98.8376C90.0938 102.183 87.5072 104.304 85.5213 104.953C83.2544 105.693 75.6982 106.689 72.8403 105.273C69.9728 103.856 69.2269 101.415 72.8403 99.6145C76.4538 97.8138 81.4332 97.9418 81.0941 96.2691C80.755 94.5963 73.935 96.525 68.0741 96.0131C62.9107 95.5561 56.0035 95.0442 56.0035 95.0442C56.0035 95.0442 51.5375 98.8924 48.7766 101.223C45.57 103.929 42.8091 106.488 38.75 105.337C35.34 104.368 34.1097 102.375 35.5435 101.086C36.9772 99.7973 38.8857 98.4445 39.4282 97.8047C39.9707 97.1648 40.7941 95.4281 40.7941 95.4281C40.7941 95.4281 39.7672 94.3952 38.9535 93.4355C38.1397 92.4666 37.791 91.6988 37.791 91.6988C37.791 91.6988 42.906 89.0571 44.8144 87.2564C46.7228 85.4557 48.4957 82.3022 48.4957 82.0463C48.4957 81.7903 52.1866 82.0188 57.631 83.006Z" fill="#FFD1B7"/>
<path d="M29.7406 68.9203C29.8569 70.7941 30.6319 72.8416 33.2862 72.8416C35.9503 72.8416 36.3572 70.5291 36.1537 68.4633C35.9503 66.3975 34.8556 64.6059 32.8116 64.6699C30.7578 64.7339 29.605 66.7266 29.7406 68.9203Z" fill="#000304"/>
<path d="M43.7874 67.9514C44.979 69.6059 47.4687 68.4633 49.0381 66.7906C50.6074 65.1178 51.4309 63.244 50.2006 61.9643C48.7668 60.4835 46.3837 62.0923 45.289 63.2531C44.1943 64.414 42.7606 66.5346 43.7874 67.9514Z" fill="#F27CB6"/>
<path d="M10.1718 75.0902C10.1718 75.0902 13.0393 72.6497 13.175 71.3609C13.3106 70.072 11.809 69.1762 9.22247 68.5273C6.6359 67.8874 4.78559 67.6223 4.51434 70.328C4.24309 73.0336 6.21934 74.0573 6.21934 74.0573C6.21934 74.0573 5.74465 74.8252 5.40559 75.0262C5.06653 75.2273 4.92121 75.8946 5.06653 76.1871C5.54121 77.156 6.22903 76.763 6.6359 76.635C7.04278 76.507 7.59496 75.9312 7.59496 75.9312C7.59496 75.9312 8.89309 79.9165 11.9543 80.8854C15.1125 81.8817 17.7475 79.7245 18.4353 79.0847C19.1134 78.4448 18.7743 76.571 16.8659 77.412C15.2384 78.1249 15.4322 78.9567 13.049 78.5728C10.6659 78.1889 10.1718 75.0902 10.1718 75.0902Z" fill="#4B4C4D"/>
<path d="M26.2144 97.7864C26.9506 98.2709 26.2628 99.8888 25.8463 100.227C25.4394 100.574 24.4416 101.854 23.3953 101.168C22.3491 100.483 23.1241 98.8924 23.7634 98.3349C24.4028 97.7773 25.3038 97.1831 26.2144 97.7864ZM39.3506 100.62C40.2613 101.251 39.8059 102.594 38.9438 103.234C38.0816 103.874 36.5703 105.008 35.6209 104.048C34.5263 102.933 36.5316 101.388 36.9869 101.05C37.4422 100.702 38.4884 100.017 39.3506 100.62ZM43.0416 102.119C43.8747 102.795 43.3225 103.783 42.5378 104.523C41.6756 105.337 40.2225 106.068 39.3603 105.382C38.4981 104.697 39.9997 103.152 40.5906 102.722C41.1816 102.293 42.0825 101.342 43.0416 102.119ZM72.3559 101.598C71.6681 102.101 70.3119 103.399 71.3969 104.34C72.4916 105.282 74.1287 103.956 74.6228 103.435C75.1266 102.923 75.9888 101.973 75.1653 101.123C74.3612 100.273 73.1794 101.004 72.3559 101.598ZM74.7197 105.675C75.4269 106.424 76.7638 105.72 77.6259 104.907C78.0328 104.523 78.8078 103.408 77.9456 102.677C77.3741 102.192 76.1244 102.549 75.175 103.444C74.2256 104.34 74.0416 104.953 74.7197 105.675Z" fill="#F47DAD"/>
<path d="M35.8728 46.0139C34.439 49.2314 38.0525 50.6482 39.4862 47.8786C40.92 45.109 42.2859 42.0834 43.0318 39.5149C43.6422 37.4309 42.005 36.6173 40.5809 38.7471C39.1472 40.8677 36.89 43.7288 35.8728 46.0139Z" fill="#9D6C5B"/>
<path d="M55.0347 43.4362C53.165 44.8987 48.7281 49.6976 47.4009 51.416C45.1534 54.3136 49.0381 56.7541 51.0143 54.1856C52.9906 51.608 56.1293 46.5898 57.1562 45.1181C58.1734 43.6282 56.6718 42.1474 55.0347 43.4362Z" fill="#C5886F"/>
<path d="M58.4447 38.8019C57.1563 39.9628 58.5803 42.5313 60.9634 40.8586C63.3466 39.1859 64.6447 38.153 65.875 36.9373C67.1053 35.7124 66.2141 34.3596 64.3056 35.2005C62.3972 36.0415 59.8784 37.5223 58.4447 38.8019Z" fill="#6F4B3B"/>
<path d="M62.5425 44.0212C59.675 46.1967 62.9494 49.4234 65.4778 47.4947C67.9966 45.566 72.7047 41.2516 74.4775 39.5149C76.2503 37.7782 75.1653 35.8495 72.5691 37.4583C70.3797 38.802 65.3325 41.8915 62.5425 44.0212Z" fill="#9D6C5B"/>
<path d="M60.2853 57.6591C57.35 59.8437 60.1981 63.2805 63.4919 60.6846C66.8341 58.043 71.5422 54.2496 73.7219 52.129C75.64 50.2643 73.7897 48.5276 71.271 50.2003C69.0622 51.6537 63.9278 54.9443 60.2853 57.6591Z" fill="#C5886F"/>
<path d="M82.1791 50.4471C78.6334 52.3118 81.0165 55.2094 83.7484 53.7926C85.8894 52.6866 92.5447 48.5824 93.5037 47.7415C94.4628 46.9005 93.8815 45.4015 92.2734 45.9408C90.365 46.5898 84.4265 49.268 82.1791 50.4471Z" fill="#9D6C5B"/>
<path d="M79.1759 41.9555C76.3763 43.9481 78.9725 47.0377 81.4234 45.3009C83.2931 43.9847 88.5147 38.738 89.3381 37.833C90.1616 36.9281 89.4059 35.6484 87.9044 36.6082C86.6063 37.4491 81.5978 40.237 79.1759 41.9555Z" fill="#6F4B3B"/>
<path d="M90.5685 54.3776C88.2822 55.5841 70.1569 64.9624 67.6575 66.5346C64.3831 68.5913 67.115 72.9056 70.3216 70.913C72.9469 69.2859 90.8688 57.6956 92.2831 56.8181C94.6566 55.3373 93.3585 52.8968 90.5685 54.3776ZM80.7453 72.2658C77.1997 73.6826 79.0403 77.22 82.1113 76.1231C85.1822 75.0262 94.5888 71.3609 96.7685 70.136C98.9481 68.9112 97.931 66.7266 95.9547 67.3664C93.9785 68.0154 84.5331 70.7484 80.7453 72.2658Z" fill="#C5886F"/>
<path d="M97.2528 58.4909C94.8019 59.8437 96.6425 62.1563 98.8222 61.2605C100.45 60.5932 103.182 59.2678 104.141 58.6188C105.1 57.979 104.751 56.1052 102.775 56.6902C101.409 57.0924 99.1225 57.4671 97.2528 58.4909Z" fill="#6F4B3B"/>
<path d="M89.2703 79.7885C86.5578 80.2821 87.2456 84.2126 90.084 83.7738C93.9009 83.198 100.905 81.0499 102.222 80.7483C103.927 80.3644 104.334 77.7227 100.924 78.1706C97.8631 78.5911 92.4769 79.2126 89.2703 79.7885ZM94.9956 87.4483C92.2637 87.3204 92.1281 90.8578 95.2668 90.8578C97.3787 90.8578 98.8125 90.7298 100.246 90.4739C102.009 90.154 102.087 88.1613 99.9072 87.8962C98.4831 87.7317 96.7103 87.5306 94.9956 87.4483Z" fill="#C5886F"/>
<path d="M102.155 70.3371C100.178 71.1049 101.128 73.6826 103.249 73.0427C104.983 72.5126 106.727 71.7539 108.229 70.9861C109.478 70.3462 108.907 68.5455 107.337 68.8655C105.768 69.1762 103.598 69.7704 102.155 70.3371Z" fill="#9D6C5B"/>
</svg>
