<svg width="106" height="117" viewBox="0 0 106 117" fill="none" xmlns="http://www.w3.org/2000/svg">
<path d="M13.0678 97.7864V84.1047H26.4006V98.8284C26.4006 103.443 19.981 106.013 17.3409 106.013H8.38394C7.79762 106.148 6.625 105.556 6.625 104.185C6.625 102.814 7.54256 102.602 8.38394 102.474C10.971 102.072 12.6041 99.6145 13.0678 97.7864Z" fill="#636363"/>
<path d="M39.0212 106.031C21.1337 106.031 6.625 90.0169 6.625 70.2731V53.3081C6.625 40.2188 16.0987 29.3597 27.9575 29.25C33.4153 29.1942 38.6885 31.4287 42.7103 35.5014C46.7322 39.5741 49.2024 45.1809 49.6213 51.1875C50.1877 56.8218 53.4141 61.6005 57.8462 64.0502L62.9375 69.4687L68.6681 65.1909C74.9619 63.191 79.5 56.6719 79.5 49.14V40.6941C79.502 40.1223 79.636 39.5605 79.8894 39.0618C80.1428 38.5631 80.5072 38.144 80.9481 37.8439C81.3891 37.5438 81.892 37.3728 82.4095 37.3469C82.927 37.321 83.4419 37.4411 83.9056 37.6959C87.185 39.4875 89.4375 43.2169 89.4375 47.5312C89.4375 43.2169 91.69 39.4875 94.9694 37.6959C95.4327 37.4368 95.9485 37.3133 96.4674 37.3373C96.9864 37.3612 97.4911 37.5318 97.9332 37.8326C98.3753 38.1335 98.74 38.5546 98.9925 39.0556C99.2449 39.5566 99.3766 40.1208 99.375 40.6941V54.405C99.375 66.2513 96.8674 77.2566 92.0643 86.0425L76.1875 98.7187L60.4531 106.024C60.1782 106.031 59.9033 106.031 59.625 106.031H50.1016L41.4062 104.203L39.0212 106.031Z" fill="#9B9B9B"/>
<path d="M23.5519 51.1875H33.1912C36.3712 51.1875 38.955 54.0394 38.9219 57.5494C38.9219 61.0594 36.3381 63.9112 33.1581 63.9112C31.1706 63.9112 29.3819 62.7778 28.355 61.0594C27.3281 62.7778 25.5725 63.9112 23.5519 63.9112C22.057 63.8553 20.6404 63.1605 19.6008 61.9736C18.5613 60.7866 17.9802 59.2003 17.9802 57.5494C17.9802 55.8985 18.5613 54.3122 19.6008 53.1252C20.6404 51.9382 22.057 51.2434 23.5519 51.1875ZM38.4581 91.3697V77.6222C38.4581 71.5162 34.0856 66.3975 28.5537 66.2878C27.2154 66.2616 25.8857 66.5296 24.6422 67.0762C23.3986 67.6227 22.266 68.437 21.3103 69.4714C20.3546 70.5059 19.5949 71.7399 19.0755 73.1016C18.5561 74.4632 18.2874 75.9254 18.285 77.4028V83.1797C18.285 95.7206 27.4275 105.922 38.7894 106.031H51.7743C44.4206 106.031 38.4581 99.45 38.4581 91.3697ZM55.0537 81.8927V96.8906C55.0537 99.8887 57.2731 102.338 59.9894 102.338C60.9169 102.338 61.6456 103.143 61.6456 104.167C61.651 104.65 61.4843 105.116 61.1813 105.465C60.8783 105.813 60.4634 106.017 60.0258 106.031C74.73 105.911 85.638 97.9546 92.1935 85.8049L93.1375 83.9658C92.167 84.8616 90.4544 86.3131 89.5865 87.1431C83.369 93.0662 79.013 97.216 67.2835 98.0862C59.8204 98.4628 57.4454 89.9218 56.0574 84.9383C55.6765 83.5673 55.3717 82.4667 55.0537 81.8927ZM59.9662 106.031H54.5933H59.625H59.9662Z" fill="#D3D3D3"/>
<path d="M22.5581 48.2991C22.5581 48.6592 22.4938 49.0158 22.369 49.3485C22.2441 49.6811 22.0611 49.9834 21.8304 50.2381C21.5998 50.4927 21.3259 50.6947 21.0245 50.8325C20.723 50.9703 20.4 51.0413 20.0737 51.0413C19.7475 51.0413 19.4244 50.9703 19.123 50.8325C18.8216 50.6947 18.5477 50.4927 18.317 50.2381C18.0863 49.9834 17.9033 49.6811 17.7785 49.3485C17.6536 49.0158 17.5894 48.6592 17.5894 48.2991C17.5894 47.5718 17.8511 46.8743 18.317 46.36C18.7829 45.8458 19.4148 45.5569 20.0737 45.5569C20.7326 45.5569 21.3645 45.8458 21.8304 46.36C22.2964 46.8743 22.5581 47.5718 22.5581 48.2991ZM36.6694 51.0413C37.3283 51.0413 37.9602 50.7523 38.4261 50.2381C38.892 49.7238 39.1537 49.0263 39.1537 48.2991C39.1537 47.5718 38.892 46.8743 38.4261 46.36C37.9602 45.8458 37.3283 45.5569 36.6694 45.5569C36.0105 45.5569 35.3785 45.8458 34.9126 46.36C34.4467 46.8743 34.185 47.5718 34.185 48.2991C34.185 49.0263 34.4467 49.7238 34.9126 50.2381C35.3785 50.7523 36.0105 51.0413 36.6694 51.0413ZM27.1294 57.2203L24.4794 54.8072C24.1864 54.5374 23.976 54.1746 23.8767 53.768C23.7773 53.3615 23.794 52.931 23.9244 52.5353C24.0548 52.1396 24.2925 51.7978 24.6052 51.5566C24.9179 51.3155 25.2904 51.1866 25.6719 51.1875H31.0712C31.4527 51.1866 31.8252 51.3155 32.1379 51.5566C32.4506 51.7978 32.6883 52.1396 32.8187 52.5353C32.9491 52.931 32.9657 53.3615 32.8664 53.768C32.7671 54.1746 32.5567 54.5374 32.2637 54.8072L29.6137 57.2203C28.885 57.8784 27.8581 57.8784 27.1294 57.2203Z" fill="#1C1C1C"/>
<path d="M69.1982 67.6041C69.1982 71.37 66.4488 74.4047 63.0369 74.4047C59.625 74.4047 56.8757 71.37 56.8425 67.6041C56.8425 66.2878 57.1738 65.0812 57.77 64.0209C59.8238 65.1544 62.1094 65.8125 64.5607 65.8125H64.9913C66.3163 65.7759 67.575 65.5566 68.7675 65.1544C69.0325 65.8856 69.1982 66.7266 69.1982 67.6041ZM81.8519 71.2603C81.8519 72.3658 81.4541 73.4259 80.7459 74.2076C80.0377 74.9893 79.0772 75.4284 78.0757 75.4284C77.0741 75.4284 76.1136 74.9893 75.4054 74.2076C74.6973 73.4259 74.2994 72.3658 74.2994 71.2603C74.2994 70.1549 74.6973 69.0947 75.4054 68.313C76.1136 67.5313 77.0741 67.0922 78.0757 67.0922C79.0772 67.0922 80.0377 67.5313 80.7459 68.313C81.4541 69.0947 81.8519 70.1549 81.8519 71.2603Z" fill="#636363"/>
</svg>
