<svg width="103" height="99" viewBox="0 0 103 99" fill="none" xmlns="http://www.w3.org/2000/svg">
<path d="M100.964 66.6394L94.3094 65.487C94.3899 64.0638 94.3818 62.6252 94.3094 61.1866L101.069 60.2198C101.292 60.1884 101.506 60.1151 101.7 60.004C101.893 59.8929 102.062 59.7463 102.196 59.5724C102.331 59.3986 102.429 59.201 102.484 58.991C102.539 58.7809 102.55 58.5624 102.517 58.3481C102.38 57.4509 101.503 56.8322 100.57 56.9559L93.9875 57.8995C93.2633 53.2744 91.4125 48.6647 88.6122 44.5113C89.4571 36.7615 91.0745 15.7549 84.5163 11.5242C79.2859 8.15203 66.8454 20.6663 62.8381 25.1599C61.9127 26.1963 61.0677 27.1322 60.2952 27.983C57.4949 27.573 54.6463 27.3488 51.8058 27.3488C48.9652 27.341 46.1247 27.573 43.3244 27.983C42.5519 27.1322 41.707 26.1963 40.7816 25.1599C36.7742 20.6663 24.3338 8.15203 19.1113 11.5242C12.5531 15.7549 14.1786 36.7615 15.0155 44.5113C12.2232 48.657 10.3563 53.2744 9.64017 57.8995L3.05782 56.9559C2.12438 56.8322 1.24728 57.4432 1.10243 58.3481C0.957588 59.2453 1.60939 60.0884 2.54282 60.2198L9.3022 61.1866C9.22978 62.6252 9.22173 64.0638 9.3022 65.487L2.65548 66.6394C2.23199 66.7107 1.85182 66.9323 1.5903 67.2603C1.32878 67.5883 1.20499 67.9987 1.24346 68.4103C1.28193 68.8219 1.47985 69.2046 1.798 69.4825C2.11616 69.7605 2.53133 69.9134 2.96126 69.911C3.05782 69.911 3.16243 69.9033 3.26704 69.8878L9.65626 68.7818C9.92181 70.406 10.3081 72.007 10.8633 73.5616L5.64892 75.1472C5.21603 75.2815 4.85574 75.5745 4.64631 75.9626C4.43688 76.3507 4.39523 76.8025 4.5304 77.22C4.66828 77.6373 4.97286 77.9849 5.37722 78.1865C5.78158 78.3881 6.25266 78.4271 6.68696 78.2951L12.1991 76.6167C13.7924 79.6254 16.1259 82.3943 19.4252 84.761C24.2935 88.2492 30.3448 90.6159 36.5891 91.8998C38.9549 92.3871 45.0866 93.5241 51.5161 93.5241C57.9456 93.5241 64.6727 92.3871 67.0466 91.8998C73.2829 90.6159 79.3422 88.2492 84.2106 84.761C87.5098 82.3943 89.8434 79.6254 91.4367 76.6167L96.9407 78.2951C97.375 78.4271 97.8461 78.3881 98.2505 78.1865C98.6548 77.9849 98.9594 77.6373 99.0973 77.22C99.387 76.3537 98.8881 75.4256 97.9868 75.1472L92.7724 73.5539C93.3277 72.007 93.722 70.406 93.9795 68.7741L100.377 69.8801C100.825 69.9549 101.285 69.8573 101.658 69.6083C102.032 69.3593 102.288 68.9791 102.372 68.5498C102.441 68.118 102.332 67.6777 102.069 67.3213C101.807 66.965 101.411 66.7205 100.964 66.6394Z" fill="#F79329"/>
<path d="M57.0925 79.811C57.2615 80.1668 56.9557 80.7391 56.8672 81.064C56.7545 81.4739 56.6499 81.8761 56.5212 82.2706C55.9096 84.2196 54.8635 86.0449 52.6185 86.4703C50.5424 86.8648 48.5467 85.5035 47.7662 83.7014C47.4765 83.044 47.2512 82.3634 47.0098 81.6905C46.881 81.3192 46.7523 80.948 46.6316 80.5845C46.5431 80.3215 46.3097 79.9038 46.3419 79.6331C47.4845 79.5635 48.8123 79.0685 49.794 78.5116C50.1159 78.326 50.478 78.2255 50.7757 78.0012C51.0413 77.8001 51.2102 77.5139 51.5482 77.4134C51.8862 77.7614 52.4575 77.9548 52.876 78.2255C53.3829 78.5503 53.8979 78.8365 54.4451 79.084C54.9521 79.316 55.5556 79.316 56.0786 79.4475C56.3522 79.5171 56.8109 79.4784 57.012 79.7027C57.0523 79.7337 57.0764 79.7646 57.0925 79.811Z" fill="#ED6C30"/>
<path d="M37.756 62.7026C37.756 66.2527 35.0925 69.1221 31.8174 69.1221C28.5423 69.1221 25.8788 66.2449 25.8788 62.7026C25.8788 59.1448 28.5423 56.2753 31.8174 56.2753C35.0925 56.2676 37.756 59.1448 37.756 62.7026ZM65.3889 62.7026C65.3889 66.2527 68.0444 69.1221 71.3275 69.1221C74.6026 69.1221 77.2661 66.2449 77.2661 62.7026C77.2661 59.1448 74.6026 56.2753 71.3275 56.2753C68.0525 56.2676 65.3889 59.1448 65.3889 62.7026ZM51.8863 78.3724C51.2667 78.3724 50.7678 77.8929 50.7678 77.2973V70.9938C50.7678 70.3983 51.2667 69.9188 51.8863 69.9188C52.5059 69.9188 53.0048 70.3983 53.0048 70.9938V77.2973C53.0048 77.8929 52.5059 78.3724 51.8863 78.3724Z" fill="#2F2F2F"/>
<path d="M46.2615 80.9016C45.9155 80.9016 45.5453 80.8861 45.1671 80.8552C40.6126 80.4684 38.6089 77.073 38.1824 75.3251C38.1005 74.9836 38.1629 74.6247 38.3561 74.3274C38.5492 74.0302 38.8572 73.8187 39.2124 73.7395C39.3878 73.6994 39.5698 73.6929 39.7479 73.7206C39.9259 73.7483 40.0965 73.8096 40.2498 73.9009C40.4031 73.9922 40.5361 74.1117 40.6412 74.2526C40.7463 74.3935 40.8213 74.5529 40.862 74.7218C40.9022 74.8842 41.7552 77.9084 45.4085 78.2255C49.2308 78.558 50.7114 76.6322 50.7758 76.5471C51.2183 75.9593 52.0633 75.8123 52.6829 76.2223C53.3025 76.6322 53.4634 77.4366 53.045 78.0398C52.9565 78.1636 50.9769 80.9016 46.2615 80.9016Z" fill="#2F2F2F"/>
<path d="M57.5512 80.9016C52.8358 80.9016 50.8562 78.1636 50.7677 78.0399C50.3412 77.4366 50.5102 76.609 51.1379 76.1991C51.7736 75.7891 52.6265 75.9516 53.053 76.5549C53.1013 76.6167 54.6061 78.5426 58.4042 78.2177C62.1299 77.9006 62.9426 74.7527 62.9507 74.7218C63.1277 74.0102 63.868 73.5694 64.6003 73.7318C65.3406 73.902 65.7993 74.6058 65.6303 75.3173C65.2038 77.0576 63.1921 80.4607 58.6456 80.8474C58.2593 80.8861 57.8972 80.9016 57.5512 80.9016ZM47.6536 70.9474C47.7179 71.7595 48.2893 72.6103 49.1744 73.1285C49.8826 73.5539 50.8884 73.7627 51.8782 73.7627C52.8599 73.7627 53.8658 73.5539 54.5739 73.1285C55.459 72.6026 56.0304 71.7595 56.0947 70.9474C56.1591 70.174 55.974 69.3851 55.0969 68.8437C54.6141 68.542 54.0106 68.3409 53.391 68.2327C53.1576 68.194 52.5461 68.0934 51.9023 68.0934C51.2666 68.0934 50.5987 68.1863 50.3573 68.2327C49.7377 68.3409 49.1342 68.542 48.6514 68.8437C47.7823 69.3928 47.5892 70.174 47.6536 70.9474Z" fill="#2F2F2F"/>
<path d="M51.8461 74.9152C50.6069 74.9152 49.3998 74.6212 48.5388 74.1108C47.3559 73.4069 46.5512 72.2313 46.4547 71.0402C46.3179 69.3077 47.2272 68.3719 47.9997 67.8846C48.5952 67.5211 49.3355 67.2504 50.1402 67.1112C50.462 67.0493 51.1943 66.9565 51.8944 66.9565C52.6508 66.9565 53.3428 67.0648 53.6003 67.1112C54.405 67.2504 55.1453 67.5211 55.7327 67.8846C56.5133 68.3719 57.4226 69.3155 57.2777 71.048C57.1812 72.2313 56.3845 73.407 55.1936 74.1185C54.3326 74.629 53.1255 74.9229 51.8863 74.9229H51.8461V74.9152ZM51.9024 69.2459C51.3552 69.2459 50.7678 69.3309 50.5827 69.3619C50.0838 69.4547 49.6252 69.6094 49.3033 69.8105C48.9895 70.0038 48.8044 70.2513 48.8527 70.8546C48.8929 71.3187 49.263 71.8214 49.8102 72.1462C50.3011 72.4402 51.0655 72.6103 51.8622 72.6103V73.7627L51.8783 72.6103C52.7071 72.6103 53.4716 72.4324 53.9544 72.1462C54.4935 71.8291 54.8798 71.3109 54.912 70.8546C54.9683 70.2513 54.7752 70.0038 54.4613 69.8105C54.1395 69.6094 53.6808 69.4547 53.1899 69.3619C53.0531 69.3464 52.4818 69.2459 51.9024 69.2459Z" fill="#2F2F2F"/>
<path d="M51.8863 87.9089C49.609 87.9089 47.4203 86.4781 46.4466 84.2274C45.996 83.1832 45.0867 80.4452 45.0464 80.3292C44.805 79.6099 45.2235 78.8365 45.9718 78.6045C46.7202 78.3724 47.5249 78.7746 47.7663 79.4939C48.0801 80.4375 48.756 82.4252 49.0779 83.1677C49.5768 84.3202 50.8965 85.3952 52.3369 85.1245C53.6566 84.877 54.5257 83.8716 55.1533 81.8761C55.2338 81.6054 55.4028 80.9944 55.5637 80.422C55.6844 79.9735 55.8051 79.5403 55.8695 79.316C56.0868 78.589 56.8593 78.1636 57.6318 78.3724C58.3882 78.5813 58.8307 79.3392 58.6135 80.0663C58.5491 80.2828 58.4364 80.6927 58.3157 81.1259C58.1548 81.7214 57.9778 82.3634 57.8812 82.665C57.5271 83.7788 56.465 87.1355 52.8841 87.8161C52.5622 87.878 52.2243 87.9089 51.8863 87.9089Z" fill="#2F2F2F"/>
</svg>
