<svg width="38" height="33" viewBox="0 0 38 33" fill="none" xmlns="http://www.w3.org/2000/svg">
<path d="M19.0008 0L26.0365 9.39925L38 12.6053L30.3834 21.62L30.743 33L19.0008 29.1722L7.25704 33L7.61665 21.62L0 12.6053L11.9652 9.39925L19.0008 0ZM15.6712 17.482H12.3415C12.3414 19.0684 13.0204 20.592 14.2334 21.7277C15.4464 22.8634 17.0975 23.5213 18.8343 23.5609C20.5711 23.6006 22.2561 23.0189 23.5298 21.9401C24.8035 20.8612 25.565 19.3705 25.6519 17.7861L25.6602 17.482H22.3305C22.3344 18.271 22.0022 19.0304 21.4042 19.5999C20.8062 20.1693 19.9892 20.5043 19.1258 20.5339C18.2624 20.5635 17.4202 20.2854 16.7771 19.7585C16.134 19.2316 15.7404 18.497 15.6795 17.7101L15.6712 17.482Z" fill="#EF3123"/>
</svg>