<svg width="95" height="93" viewBox="0 0 95 93" fill="none" xmlns="http://www.w3.org/2000/svg">
<path d="M52.7883 52.2944C51.6642 52.2944 50.5242 52.3203 49.3736 52.3745C48.2231 55.6502 48.1386 59.4709 49.3736 65.5418C50.2392 69.7939 56.3904 81.8142 61.4703 86.0353C63.2727 87.5337 65.7928 88.319 68.5689 88.319C74.2267 88.319 80.9479 85.0511 84.8165 77.8978C92.7358 63.2478 75.649 52.2944 52.7883 52.2944Z" fill="#1C6399"/>
<path d="M88.8408 5.09692C88.3025 5.09692 87.7193 5.15117 87.0913 5.26742C78.6943 6.82001 62.5443 18.5096 49.3895 35.6758C49.3895 35.6758 47.3074 49.0058 47.3074 51.677C47.3074 52.545 50.6429 52.9687 55.3771 52.9687C65.1858 52.9687 80.9981 51.1474 85.5238 47.6961C90.5324 43.8753 95.1557 22.3691 94.7282 11.3253C94.6068 8.28992 92.9813 5.09692 88.8408 5.09692Z" fill="#1C6399"/>
<path d="M71.5086 36.0013L89.0018 34.875C89.0018 34.875 86.2177 44.2241 80.8159 46.903C75.4141 49.5819 60.4463 50.778 60.4463 50.778C60.4463 50.778 66.5949 39.7704 69.1177 37.1122C69.7431 36.4508 70.5929 36.0582 71.5086 36.0013ZM72.8808 30.9587L92.7411 9.90192C92.7411 9.90192 92.7463 23.7615 89.5586 32.209C89.5586 32.209 75.3534 33.1881 73.9522 33.2191C72.097 33.2604 71.3951 32.5345 72.8808 30.9587ZM56.868 50.778L71.3819 28.6982C71.6265 28.4186 71.7958 28.0835 71.8746 27.7235C71.9534 27.3635 71.9392 26.99 71.8331 26.6367L69.2787 18.2848L51.5401 35.3581L49.3129 50.9382L56.868 50.778ZM73.5247 22.94C73.9786 23.9888 74.8863 24.2317 75.9999 23.2629C77.1136 22.2942 92.0286 7.52008 91.8333 7.19975C91.8333 7.19975 84.3599 4.11525 71.2499 16.1458C71.2499 16.1458 73.0708 21.8912 73.5247 22.94ZM49.9726 54.1958L64.1513 67.7014C64.4111 67.9244 64.5853 68.2274 64.6453 68.5604C64.7053 68.8934 64.6474 69.2365 64.4812 69.533L58.2138 80.7292C58.2138 80.7292 47.1648 66.5751 49.9726 54.1958ZM69.189 70.4733L83.8322 72.3876C83.8322 72.3876 81.0402 82.3205 74.8758 84.9271C64.5683 89.2878 60.858 83.3125 60.858 83.3125L67.0647 71.5273C67.2579 71.153 67.5682 70.8489 67.9503 70.6594C68.3324 70.4698 68.7664 70.4046 69.189 70.4733ZM53.4876 53.8728L67.6716 66.681C67.8748 66.8515 68.1176 66.9652 68.3815 67.0143L84.5288 69.347C84.5288 69.347 81.312 61.5169 72.8412 57.6419C63.0509 53.165 53.4876 53.8728 53.4876 53.8728Z" fill="#55ACEE"/>
<path d="M52.7883 52.2944C51.6642 52.2944 50.5242 52.3203 49.3736 52.3745C48.2231 55.6502 48.1386 59.4709 49.3736 65.5418C50.2392 69.7939 56.3904 81.8142 61.4703 86.0353C63.2727 87.5337 65.7928 88.319 68.5689 88.319C74.2267 88.319 80.9479 85.0511 84.8165 77.8978C92.7358 63.2478 75.649 52.2944 52.7883 52.2944ZM80.5943 76.3866C77.1215 82.8088 72.5457 85.3585 68.5663 85.3585C66.5422 85.3585 64.0696 84.5499 62.8927 83.5734C58.4197 79.856 53.8228 71.7418 51.6774 64.9114C50.4503 61.0028 50.7432 54.5213 50.7432 54.5213L52.5033 54.467C66.1411 54.467 76.9104 59.7835 80.8081 66.123C82.6922 69.1868 82.621 72.6408 80.5943 76.3866Z" fill="#292F33"/>
<path d="M88.8408 8.32609C89.4504 8.32609 91.3082 8.32609 91.4296 11.4468C91.6988 18.3727 89.8621 27.1043 87.7431 34.3919C86.3154 39.3028 83.5578 42.8963 82.2172 43.9167C80.7395 45.043 77.301 47.1148 72.4032 47.9544C67.0463 48.8715 61.3014 50.1063 55.3665 50.1063C53.1842 50.1063 51.585 50.1554 50.6324 50.0521C50.9781 46.9056 51.9228 40.8787 52.5245 36.9701C62.4678 24.2084 78.1507 10.2042 87.7035 8.43976C88.1125 8.36484 88.4952 8.32609 88.8408 8.32609ZM88.8408 5.09692C88.3025 5.09692 87.7193 5.15117 87.0913 5.26742C78.6943 6.82001 62.5443 18.5096 49.3895 35.6758C49.3895 35.6758 47.3074 49.0058 47.3074 51.677C47.3074 52.545 50.6429 52.9687 55.3771 52.9687C65.1858 52.9687 80.9981 51.1474 85.5238 47.6961C90.5324 43.8753 95.1557 22.3691 94.7282 11.3253C94.6068 8.28992 92.9813 5.09692 88.8408 5.09692Z" fill="#292F33"/>
<path d="M10.297 77.8978C14.1656 85.0511 20.8842 88.319 26.5446 88.319C29.3207 88.319 31.8408 87.5337 33.6432 86.0353C38.7231 81.8168 44.8743 69.7965 45.7399 65.5418C46.9749 59.4709 46.8904 55.6528 45.7399 52.3745C44.6025 52.321 43.4639 52.2943 42.3252 52.2944C19.4592 52.2944 2.37501 63.2478 10.297 77.8978Z" fill="#1C6399"/>
<path d="M6.27001 5.09692C2.1296 5.09692 0.501401 8.28992 0.38529 11.3228C-0.04221 22.3665 4.58112 43.8753 9.58974 47.6935C14.1154 51.1448 29.925 52.9661 39.7364 52.9661C44.4706 52.9661 47.8061 52.5424 47.8061 51.6744C47.8061 49.0058 45.724 35.6733 45.724 35.6733C32.5665 18.5096 16.4139 6.82001 8.0196 5.26742C7.44309 5.1574 6.85736 5.10032 6.27001 5.09692Z" fill="#1C6399"/>
<path d="M23.5996 36.0013L6.10906 34.875C6.10906 34.875 8.89308 44.2241 14.2949 46.903C19.6967 49.5819 34.6645 50.778 34.6645 50.778C34.6645 50.778 28.5159 39.7704 25.9931 37.1122C25.3716 36.4534 24.514 36.0554 23.5996 36.0013ZM22.23 30.9587L2.36975 9.90192C2.36975 9.90192 2.36447 23.7615 5.55225 32.209C5.55225 32.209 19.7574 33.1881 21.1586 33.2191C23.0138 33.2604 23.7157 32.5345 22.23 30.9587ZM38.2428 50.778L23.7289 28.6982C23.4843 28.4186 23.315 28.0835 23.2362 27.7235C23.1574 27.3635 23.1716 26.99 23.2777 26.6367L25.8321 18.2848L43.5707 35.3581L45.7979 50.9382L38.2428 50.778ZM21.5835 22.94C21.1296 23.9888 20.2218 24.2317 19.1082 23.2629C17.9946 22.2942 3.07961 7.52008 3.27489 7.19975C3.27489 7.19975 10.7482 4.11525 23.8582 16.1458C23.8609 16.1458 22.0374 21.8912 21.5835 22.94ZM45.1382 54.1958L30.9595 67.7014C30.6997 67.9244 30.5255 68.2274 30.4655 68.5604C30.4055 68.8934 30.4634 69.2365 30.6296 69.533L36.897 80.7266C36.8943 80.7292 47.946 66.5751 45.1382 54.1958ZM25.9192 70.4733L11.276 72.3876C11.276 72.3876 14.0679 82.3205 20.2324 84.9271C30.5399 89.2878 34.2502 83.3125 34.2502 83.3125L28.0435 71.5273C27.8509 71.1525 27.5408 70.8479 27.1585 70.6582C26.7762 70.4686 26.3419 70.4038 25.9192 70.4733ZM41.6232 53.8728L27.4392 66.681C27.2365 66.8511 26.9917 66.966 26.7293 67.0143L10.582 69.347C10.582 69.347 13.7988 61.5169 22.2696 57.6419C32.0572 53.165 41.6232 53.8728 41.6232 53.8728Z" fill="#55ACEE"/>
<path d="M10.297 77.8978C14.1656 85.0511 20.8842 88.319 26.5446 88.319C29.3207 88.319 31.8408 87.5337 33.6432 86.0353C38.7231 81.8168 44.8743 69.7965 45.7399 65.5418C46.9749 59.4709 46.8904 55.6528 45.7399 52.3745C44.6025 52.321 43.4639 52.2943 42.3252 52.2944C19.4592 52.2944 2.37501 63.2478 10.297 77.8978ZM14.3028 66.1204C18.2004 59.7809 28.9697 54.4644 42.6075 54.4644L44.3677 54.5187C44.3677 54.5187 44.6606 61.0028 43.4335 64.9088C41.2881 71.7392 36.6911 79.8534 32.2182 83.5708C31.0413 84.5499 28.5686 85.3559 26.5446 85.3559C22.5652 85.3559 17.9893 82.8088 14.5165 76.384C12.4899 72.6408 12.4186 69.1868 14.3028 66.1204Z" fill="#292F33"/>
<path d="M6.27001 8.32609C6.61571 8.32609 6.99835 8.36484 7.40737 8.43976C16.9575 10.2042 32.6431 24.2084 42.5864 36.9701C43.1881 40.8787 44.1328 46.9056 44.4785 50.0521C43.5258 50.1554 41.9267 50.1063 39.7443 50.1063C33.8095 50.1063 28.0646 48.8715 22.7076 47.9544C17.8099 47.1148 14.3714 45.043 12.8936 43.9167C11.5531 42.8937 8.79543 39.3028 7.36779 34.3919C5.24876 27.1043 3.4121 18.3727 3.68126 11.4468C3.80265 8.32609 5.65779 8.32609 6.27001 8.32609ZM6.27001 5.09692C2.1296 5.09692 0.501401 8.28992 0.38529 11.3228C-0.04221 22.3665 4.58112 43.8753 9.58974 47.6935C14.1154 51.1448 29.925 52.9661 39.7364 52.9661C44.4706 52.9661 47.8061 52.5424 47.8061 51.6744C47.8061 49.0058 45.724 35.6733 45.724 35.6733C32.5665 18.5096 16.4139 6.82001 8.0196 5.26742C7.44309 5.1574 6.85736 5.10032 6.27001 5.09692Z" fill="#292F33"/>
<path d="M57.7574 12.3018C57.6008 12.217 57.4287 12.1633 57.2509 12.1437C57.0731 12.1242 56.893 12.1392 56.7212 12.1879C56.5493 12.2366 56.3889 12.3181 56.2493 12.4276C56.1097 12.5372 55.9935 12.6726 55.9075 12.8262L48.6769 25.6912C48.6294 25.7765 48.6189 25.8669 48.5925 25.9547C48.2574 25.9367 47.9486 25.9082 47.5554 25.9082C47.1649 25.9082 46.8535 25.9341 46.521 25.9547C46.4946 25.8669 46.484 25.7765 46.4365 25.6912L39.206 12.8262C39.0317 12.5162 38.7388 12.2867 38.3916 12.1881C38.0444 12.0895 37.6715 12.1299 37.3548 12.3005C37.0381 12.4711 36.8036 12.7579 36.7029 13.0978C36.6022 13.4376 36.6435 13.8027 36.8178 14.1127L43.824 26.5799C40.7128 28.6052 46.8588 35.4614 44.8294 50.3569C42.1035 70.3778 47.5554 75.7175 47.5554 75.7175C47.5554 75.7175 53.01 70.3778 50.2814 50.3569C48.2521 35.4614 54.3981 28.6052 51.2868 26.5799L58.2957 14.1127C58.3819 13.9593 58.4364 13.7906 58.4559 13.6165C58.4755 13.4424 58.4599 13.2663 58.4099 13.0981C58.3599 12.9299 58.2765 12.773 58.1646 12.6364C58.0526 12.4998 57.9142 12.3861 57.7574 12.3018Z" fill="#292F33"/>
</svg>
