<svg width="115" height="112" viewBox="0 0 115 112" fill="none" xmlns="http://www.w3.org/2000/svg">
<path d="M101.254 51.8088C101.254 51.8088 104.794 49.875 105.683 49.385C106.573 48.895 109.816 46.9175 110.993 48.65C111.685 49.665 110.364 52.535 108.253 55.5275C106.33 58.2663 101.856 63.8925 101.604 65.0038C101.353 66.115 102.602 70.5688 102.979 72.2925C103.356 74.0163 104.542 78.1638 104.03 79.765C103.518 81.3663 100.948 85.7588 94.3719 85.68C89.143 85.6187 87.6247 84.1225 87.454 83.2125C87.3282 82.5562 86.9508 80.3775 86.9508 80.3775C86.9508 80.3775 82.6473 82.9675 80.6258 83.9475C78.6043 84.9275 73.1598 87.64 73.1598 87.64C73.1598 87.64 74.211 92.3213 74.3817 94.2113C74.5524 96.1012 75.1544 98.805 74.1301 100.616C73.2047 102.261 70.3118 105.009 63.5016 104.965C58.1829 104.93 56.8442 103.32 55.9997 102.34C55.1551 101.351 54.9844 96.67 54.9844 95.69C54.9844 94.71 54.8137 91.2537 54.8137 91.2537C54.8137 91.2537 47.6083 90.9038 43.2598 90.5975C39.3247 90.3175 34.1317 89.7313 34.1317 89.7313C34.1317 89.7313 34.3204 91.77 34.509 93.24C34.6797 94.5525 34.7157 97.3 33.3051 98.6388C31.4094 100.441 26.5129 100.573 23.8176 100.319C21.1223 100.074 17.3668 98.7175 16.2708 96.3375C15.1747 93.9575 16.6122 90.8338 17.1961 89.0312C17.7172 87.4475 18.6336 85.1725 18.2922 84.5162C17.9508 83.86 14.6626 83.0375 9.94575 78.435C5.21997 73.8325 -0.952292 57.855 12.8926 46.7338C26.8094 35.5688 52.2532 47.6963 53.6008 48.5188C54.9844 49.3588 101.254 51.8088 101.254 51.8088Z" fill="#BDCF47"/>
<path d="M59.5215 22.12C47.0063 22.6625 37.6176 28.7 32.9547 35.2975C30.1696 39.235 28.777 42.07 28.777 42.07C28.777 42.07 33.0985 42.1925 36.9977 44.2225C41.4899 46.5588 46.7008 49.0875 50.1239 60.0862C52.7024 68.3987 53.6996 76.3 60.402 78.0413C67.9938 80.01 85.702 79.03 94.1742 71.0237C102.647 63.0175 104.291 56.98 102.143 49.0963C99.9961 41.2125 90.311 27.1775 76.8434 23.4763C71.0305 21.875 65.2086 21.875 59.5215 22.12Z" fill="#6E823A"/>
<path d="M100.562 44.905C100.185 44.0387 99.3942 42.7175 99.3942 42.7175C99.3942 42.7175 99.3313 44.5112 99.1696 45.4562C98.918 46.9963 98.0465 50.1988 97.5434 49.7262C96.6449 48.8775 92.3953 43.6712 90.3739 40.775C88.8375 38.57 83.5457 32.8037 83.4199 30.9225C83.3571 29.995 84.561 26.8537 84.561 26.8537C84.561 26.8537 83.4649 26.2412 82.4496 25.6812C81.659 25.2525 80.509 24.78 80.509 24.78C80.509 24.78 79.8172 29.0675 79.0535 29.8725C78.3797 30.5812 74.2739 32.1475 71.0844 33.32C67.2301 34.7375 63.4926 36.5837 62.1 36.8287C60.8782 37.0475 53.9332 35.595 51.3188 35.105C48.0305 34.4925 43.0711 33.1275 41.9301 32.3312C40.6004 31.4037 39.1719 29.0237 39.1719 29.0237C39.1719 29.0237 38.3723 29.5575 37.5727 30.17C36.7821 30.7737 35.7578 31.9725 35.7578 31.9725C35.7578 31.9725 37.8332 34.0025 37.95 34.755C38.1117 35.805 36.809 37.2312 35.7399 38.5875C35.093 39.4012 33.2692 42.8312 33.2692 42.8312C33.2692 42.8312 34.1407 42.91 35.2008 43.3825C36.3059 43.8813 37.3391 44.3975 37.3391 44.3975C37.3391 44.3975 40.0074 38.36 41.7414 37.8087C43.2239 37.3362 47.4016 38.675 50.4383 39.2875C54.7418 40.1538 59.0992 40.9237 60.0157 42.0612C60.968 43.2337 61.8664 47.9062 62.7379 51.8525C63.6903 56.175 66.161 67.3925 65.586 68.25C65.0199 69.1162 60.4649 68.8012 57.8684 68.495C55.6672 68.2325 52.1094 66.955 52.1094 66.955C52.1094 66.955 52.6305 68.8013 52.8012 69.2913C53.0528 70 53.8434 71.9688 53.8434 71.9688C53.8434 71.9688 58.9375 74.1562 73.9864 72.8C89.0352 71.4437 96.4742 61.46 98.5856 57.0325C101.407 51.1 101.766 47.9412 101.766 47.9412C101.766 47.9412 100.939 45.7712 100.562 44.905ZM86.834 64.0587C83.0246 66.395 73.1778 68.8625 71.3989 67.935C69.9793 67.1912 67.859 55.7375 66.8438 50.6275C66.1969 47.355 64.6426 42.385 65.577 40.8362C66.2059 39.7862 69.8805 38.22 72.5938 36.9862C75.1723 35.8225 78.8559 34.2475 79.934 34.37C81.4614 34.545 84.7407 39.725 88.0289 44.1613C91.3172 48.5975 94.9199 53.2175 94.9828 54.8188C95.0637 56.4288 90.7602 61.6612 86.834 64.0587Z" fill="#484E23"/>
<path d="M36.9976 57.6275C37.4468 60.1038 36.1441 62.6587 33.341 62.895C31.041 63.0875 29.2172 61.5213 28.7679 59.045C28.3187 56.5688 29.7922 54.2413 32.0742 53.8475C34.3383 53.4538 36.5484 55.1425 36.9976 57.6275ZM20.5023 57.8463C20.5652 60.3313 18.3281 62.825 15.5609 62.3175C13.2879 61.8975 11.9761 59.9287 12.2277 57.4612C12.4883 54.9937 14.5547 53.1737 16.8547 53.3925C19.1547 53.6112 20.4394 55.2563 20.5023 57.8463ZM27.6449 67.0162C28.6871 66.325 30.43 64.68 31.5621 66.0887C32.7031 67.5062 30.7355 68.8013 29.6035 69.5975C28.4625 70.4025 25.9379 72.3712 24.105 72.3712C22.398 72.3712 19.8015 70.3412 18.1574 68.985C16.8187 67.8825 16.1988 66.4563 16.9535 65.5988C17.7082 64.7413 18.8761 65.0562 19.8644 65.905C21.0054 66.8937 23.2066 68.8625 24.105 68.8625C24.9855 68.8712 26.2523 67.9437 27.6449 67.0162Z" fill="#2A2B28"/>
</svg>
