<svg width="96" height="96" viewBox="0 0 96 96" fill="none" xmlns="http://www.w3.org/2000/svg">
<g clip-path="url(#clip0_25_555)">
<path d="M40.5333 81.3333C20.6667 80 10.2667 72.9333 0.4 55.2C0.133333 54.8 0 54.2667 0 53.8667H11.3333V48.8C11.3333 42.2667 16.5333 37.0667 23.0667 37.0667C29.6 37.0667 34.8 42.2667 34.8 48.8V70.5333C34.8 74.9333 37.0667 78.9333 40.5333 81.3333ZM84.6667 53.8667V48.6667C84.6667 42.1333 79.4667 36.9333 72.9333 36.9333C66.5333 36.9333 61.3333 42 61.2 48.2667V70.5333C61.2 75.0667 58.9333 78.9333 55.4667 81.3333C75.3333 80 85.7333 73.0667 95.6 55.3333C95.8667 54.9333 96 54.4 95.8667 53.8667H84.6667Z" fill="#FFD8CA"/>
<path d="M56.6667 80.4C56.8 80.4 56.8 80.2667 56.9333 80.2667L57.7333 79.4667L58 79.2C58.2667 78.9333 58.5333 78.5333 58.8 78.2667L58.9333 78.1333C59.2 77.7333 59.4667 77.3333 59.7333 76.8C60 76.4 60.1333 76 60.2667 75.4667C60.2667 75.3333 60.4 75.2 60.4 75.0667C60.5333 74.8 60.6667 74.4 60.6667 74.1333C60.6667 74 60.8 73.8667 60.8 73.6C60.9333 73.2 60.9333 72.9333 60.9333 72.5333C60.9333 72.4 60.9333 72.2667 61.0667 72.1333C61.0667 71.6 61.2 71.0667 61.2 70.6667V48.1333C61.3333 41.8667 66.5333 36.8 72.9333 36.8C79.4667 36.8 84.6667 42 84.6667 48.5333V53.7333H96C96 53.2 95.8667 52.6667 95.6 52.2667C92.9333 47.3333 90.1333 42.6667 87.2 38.4C89.3333 36.8 91.0667 34.6667 92.5333 32.2667C96.5333 25.3333 96.2667 17.2 92.6667 10.6667C92.4 10.2667 92 10 91.4667 10C84.1333 10 77.6 14 73.6 20.9333C73.0667 21.7333 72.6667 22.6667 72.2667 23.4667C65.6 19.6 57.8667 17.3333 48 17.3333C38.1333 17.3333 30.4 19.7333 23.8667 23.7333C23.4667 22.8 23.0667 22 22.5333 21.2C18.5333 14.2667 12 10.2667 4.66667 10.2667C4.13333 10.2667 3.73333 10.5333 3.46667 10.9333C-0.133334 17.3333 -0.4 25.6 3.6 32.5333C5.06667 34.9333 6.8 36.9333 8.93333 38.6667C5.86667 42.6667 3.06667 47.3333 0.4 52.4C0.133333 52.8 0 53.3333 0 53.8667H11.3333V48.8C11.3333 42.2667 16.5333 37.0667 23.0667 37.0667C29.6 37.0667 34.8 42.2667 34.8 48.8V70.5333C34.8 71.0667 34.8 71.6 34.9333 72C34.9333 72.1333 34.9333 72.2667 35.0667 72.4C35.0667 72.8 35.2 73.0667 35.2 73.4667C35.2 73.6 35.3333 73.7333 35.3333 74C35.4667 74.4 35.6 74.6667 35.6 74.9333C35.6 75.0667 35.7333 75.2 35.7333 75.3333C35.8667 75.7333 36.1333 76.1333 36.2667 76.6667C36.5333 77.0667 36.8 77.6 37.0667 78L37.2 78.1333C37.4667 78.5333 37.7333 78.8 38 79.0667L38.2667 79.3333L39.0667 80.1333C39.2 80.1333 39.2 80.2667 39.3333 80.2667C39.7333 80.5333 40.1333 80.9333 40.5333 81.2C42.6667 82.6667 45.2 83.4667 48 83.4667C50.8 83.4667 53.3333 82.6667 55.4667 81.2C55.8667 81.0667 56.2667 80.8 56.6667 80.4Z" fill="#FF6F1F"/>
<path d="M43.8666 60.9333H50.8C51.6 60.9333 52.1333 60.8 52.1333 60.8C53.7333 60.6667 55.2 61.8667 55.3333 63.6C55.4666 64.4 55.0666 65.3333 54.5333 65.8667L52 68.6667C52 68.6667 51.4666 69.2 50.6666 69.6C50.2666 69.8667 49.8666 70 49.3333 70.1333C49.0666 70.2667 48.8 70.2667 48.5333 70.2667H46.9333C46.6666 70.2667 46.4 70.1333 46.1333 70.1333C45.8666 70.1333 45.6 70 45.4666 69.8667C45.2 69.8667 45.0666 69.7333 44.8 69.6C44 69.2 43.4666 68.8 43.4666 68.8L41.0666 66.4C39.8666 65.2 39.8666 63.2 41.0666 62C42.1333 61.2 43.0666 60.8 43.8666 60.9333ZM76.4 26.8C81.2 16.1333 89.7333 11.4667 91.7333 10.4V10.2667H89.7333C82.9333 10.8 77.0666 14.6667 73.3333 21.0667C72.8 21.8667 72.4 22.8 72 23.6C73.6 24.6667 75.0666 25.6 76.4 26.8ZM19.6 26.8C21.0666 25.6 22.6666 24.4 24.4 23.4667C24.1333 22.5333 23.7333 21.7333 23.2 21.0667C19.0666 14.1333 11.7333 10.2667 4.26663 10.2667C4.13329 10.2667 4.13329 10.4 4.26663 10.5333C6.26663 11.3333 14.8 16.1333 19.6 26.8ZM47.8666 80.1333C46.5333 80.1333 45.2 79.8667 43.8666 79.3333C43.2 79.0667 42.8 78.2667 43.2 77.6C43.6 76.9333 44.2666 76.5333 44.9333 76.9333C48.8 78.5333 53.0666 76.9333 54.8 73.2C55.0666 72.5333 55.8666 72.2667 56.5333 72.5333C57.2 72.8 57.4666 73.6 57.2 74.2667C55.4666 77.8667 51.7333 80.1333 47.8666 80.1333ZM22.8 48C25.0666 48 26.8 49.8667 26.8 52V61.0667C26.8 63.3333 24.9333 65.0667 22.8 65.0667C20.5333 65.0667 18.8 63.2 18.8 61.0667V52C18.8 49.8667 20.5333 48 22.8 48ZM72.9333 48C75.2 48 76.9333 49.8667 76.9333 52V61.0667C76.9333 63.3333 75.0666 65.0667 72.9333 65.0667C70.6666 65.0667 68.9333 63.2 68.9333 61.0667V52C68.9333 49.8667 70.6666 48 72.9333 48Z" fill="#2B3B47"/>
<path d="M18.9334 46.8C17.8667 46.8 16.8 46.5333 15.7334 46.1333C14.9334 45.8667 14.6667 44.9333 14.9334 44.1333C15.2 43.3333 16.1334 43.0667 16.9334 43.3333C18.2667 43.8667 19.7334 43.8667 21.0667 43.3333C22.4 42.6667 23.3334 41.6 23.7334 40.1333C24 39.3333 24.8 38.9333 25.6 39.0667C26.4 39.3333 26.8 40.1333 26.6667 40.9333C26 43.2 24.4 44.9333 22.2667 46C21.3334 46.5333 20.1334 46.8 18.9334 46.8ZM77.8667 44.9333C77.4667 44.9333 77.0667 44.8 76.6667 44.4C75.7334 43.3333 74.4 42.6667 72.9334 42.6667H72.8C71.3334 42.6667 70 43.2 69.0667 44.2667C68.5334 44.9333 67.6 44.9333 66.9334 44.4C66.2667 43.8667 66.2667 42.9333 66.8 42.2667C68.4 40.5333 70.6667 39.6 72.9334 39.6C75.2 39.6 77.4667 40.6667 78.9334 42.4C79.4667 43.0667 79.4667 44 78.8 44.5333C78.5334 44.8 78.1334 44.9333 77.8667 44.9333Z" fill="#FFAF8F"/>
</g>
<defs>
<clipPath id="clip0_25_555">
<rect width="96" height="96" fill="white"/>
</clipPath>
</defs>
</svg>
